# xmcd
#
# Track frame offsets: 
#        150
#        15130
#        33288
#        50228
#        74230
#        84100
#        104747
#        133784
#        152817
#
# Disc length: 2275 seconds
#
# Revision: 0
# Processed by: cddbd v1.5.2PL0 Copyright (c) Steve Scherf et al.
# Submitted via: ExactAudioCopy v0.95b3
#
DISCID=7608e109
DTITLE=The Rolling Stones  - Stone Age - Bonus Tracks  FLAC
DYEAR=1900
DGENRE=
TTITLE0=Brown Sugar
TTITLE1=Bitch
TTITLE2=Rocks Off
TTITLE3=Gimme Shelter
TTITLE4=Don't Lie To Me
TTITLE5=Tumbling Dice
TTITLE6=Love In Vain
TTITLE7=Sweet Virginia
TTITLE8=All Down The Line
EXTD=
EXTT0=
EXTT1=
EXTT2=
EXTT3=
EXTT4=
EXTT5=
EXTT6=
EXTT7=
EXTT8=
PLAYORDER=
